<svg width="14" height="14" viewBox="0 0 14 14" fill="none" xmlns="http://www.w3.org/2000/svg">
<path d="M12.7205 7.17365C13.0715 6.82265 13.2295 6.32165 13.1435 5.83332C13.0575 5.34498 12.7375 4.92765 12.2875 4.71832L11.6418 4.41732C11.4438 4.32532 11.3235 4.11698 11.3428 3.89898L11.4051 3.18998C11.4485 2.69565 11.2478 2.21032 10.8678 1.89132C10.4878 1.57265 9.97378 1.45965 9.49512 1.58698L8.80712 1.77198C8.59645 1.82765 8.37012 1.74632 8.24478 1.56698L7.83645 0.983651C7.55245 0.576984 7.08612 0.333984 6.59012 0.333984C6.09412 0.333984 5.62778 0.576984 5.34345 0.982984L4.93512 1.56632C4.80978 1.74565 4.58412 1.82698 4.37245 1.77132L3.68478 1.58632C3.20545 1.45865 2.69245 1.57165 2.31245 1.89065C1.93245 2.20965 1.73178 2.69498 1.77512 3.18932L1.83745 3.89865C1.85645 4.11632 1.73645 4.32465 1.53812 4.41732L0.892449 4.71798C0.442448 4.92732 0.122448 5.34432 0.0364485 5.83298C-0.0495515 6.32165 0.108448 6.82265 0.459448 7.17331L0.963115 7.67665C1.11778 7.83098 1.15945 8.06798 1.06712 8.26598L0.765782 8.91165C0.556115 9.36131 0.578782 9.88631 0.827115 10.316C1.07545 10.7456 1.51845 11.028 2.01278 11.071L2.72245 11.133C2.94012 11.152 3.12412 11.3066 3.18078 11.5176L3.36478 12.2053C3.49312 12.6846 3.84778 13.072 4.31412 13.2416C4.78012 13.4113 5.30078 13.343 5.70812 13.058L6.29112 12.649C6.47012 12.5243 6.71078 12.523 6.88978 12.649L7.47312 13.058C7.73212 13.2396 8.03812 13.3333 8.34645 13.3333C8.52178 13.3333 8.69778 13.303 8.86678 13.2416C9.33278 13.0716 9.68778 12.6843 9.81612 12.2053L10.0001 11.5176C10.0564 11.3063 10.2408 11.1516 10.4584 11.133L11.1674 11.071C11.6618 11.028 12.1051 10.7456 12.3531 10.316C12.6011 9.88631 12.6241 9.36131 12.4141 8.91131L12.1128 8.26598C12.0205 8.06798 12.0621 7.83098 12.2168 7.67665L12.7205 7.17365ZM9.35378 5.85432L6.02045 9.18765C5.92278 9.28531 5.79478 9.33398 5.66678 9.33398C5.53878 9.33398 5.41078 9.28531 5.31312 9.18765L3.64645 7.52098C3.45112 7.32565 3.45112 7.00932 3.64645 6.81398C3.84178 6.61865 4.15812 6.61865 4.35345 6.81398L5.66678 8.12698L8.64645 5.14732C8.84178 4.95198 9.15812 4.95198 9.35345 5.14732C9.54878 5.34265 9.54878 5.65898 9.35378 5.85432Z" fill="#2D8CFF"/>
</svg>
