<svg width="20" height="20" viewBox="0 0 20 20" fill="none" xmlns="http://www.w3.org/2000/svg">
<path d="M14.2857 9.99859C14.2857 10.5526 14.1984 11.086 14.0387 11.5831L13.2829 10.7835C13.3324 10.5251 13.3573 10.2622 13.3571 9.99859V9.01628C13.3571 8.88601 13.4061 8.76109 13.4931 8.66898C13.5802 8.57687 13.6983 8.52512 13.8214 8.52512C13.9446 8.52512 14.0627 8.57687 14.1497 8.66898C14.2368 8.76109 14.2857 8.88601 14.2857 9.01628V9.99859ZM9.64286 13.9278C10.4024 13.9278 11.1081 13.6872 11.6969 13.2726L12.3636 13.9789C11.7001 14.4863 10.9217 14.7991 10.1071 14.8856L10.1071 16.8748H12.8929C13.016 16.8748 13.1341 16.9265 13.2212 17.0186C13.3082 17.1108 13.3571 17.2357 13.3571 17.3659C13.3571 17.4962 13.3082 17.6211 13.2212 17.7133C13.1341 17.8054 13.016 17.8571 12.8929 17.8571H6.39286C6.26972 17.8571 6.15163 17.8054 6.06456 17.7133C5.97749 17.6211 5.92857 17.4962 5.92857 17.3659C5.92857 17.2357 5.97749 17.1108 6.06456 17.0186C6.15163 16.9265 6.26972 16.8748 6.39286 16.8748H9.17857L9.17857 14.8856C8.03335 14.7638 6.97171 14.1964 6.1996 13.2934C5.4275 12.3904 4.99999 11.2162 5 9.99859V9.01628C5 8.88601 5.04892 8.76109 5.13599 8.66898C5.22306 8.57687 5.34115 8.52512 5.46429 8.52512C5.58742 8.52512 5.70551 8.57687 5.79259 8.66898C5.87966 8.76109 5.92857 8.88601 5.92857 9.01628V9.99859C5.92857 11.0407 6.3199 12.0401 7.01646 12.777C7.71302 13.5139 8.65777 13.9278 9.64286 13.9278ZM12.4286 5.08702V9.87973L11.5 8.89742V5.08702C11.5021 4.57451 11.3149 4.0814 10.9782 3.71289C10.6415 3.34439 10.1819 3.12967 9.69768 3.11455C9.21341 3.09942 8.74273 3.28509 8.38605 3.63194C8.02937 3.97879 7.81494 4.45935 7.7885 4.97111L7.00386 4.14105C7.21645 3.48019 7.64383 2.92058 8.20992 2.56185C8.77601 2.20312 9.44407 2.06854 10.0952 2.18208C10.7463 2.29562 11.3382 2.64991 11.7655 3.18187C12.1928 3.71383 12.4277 4.38894 12.4286 5.08702Z" fill="#9CA3AF"/>
<path d="M11.0628 12.3752L10.348 11.6605C10.0582 11.7756 9.74451 11.8179 9.43447 11.7839C9.12443 11.7499 8.82743 11.6405 8.56939 11.4653C8.31134 11.2901 8.1001 11.0544 7.95411 10.7788C7.80811 10.5032 7.73179 10.196 7.73181 9.88414V9.04518L6.77628 8.08965L6.77628 9.88414C6.77614 10.3861 6.90779 10.8793 7.15809 11.3144C7.40839 11.7495 7.76854 12.1112 8.20254 12.3634C8.63653 12.6157 9.12914 12.7495 9.63109 12.7515C10.133 12.7536 10.6267 12.6238 11.0628 12.3752ZM3.57144 3.53369L15.0378 15L15.7143 14.3235L4.24796 2.85718L3.57144 3.53369Z" fill="#9CA3AF"/>
</svg>
