<svg width="16" height="16" viewBox="0 0 16 16" fill="none" xmlns="http://www.w3.org/2000/svg">
<path d="M7.99992 1.33337C4.32394 1.33337 1.33325 4.32407 1.33325 8.00004C1.33325 11.676 4.32394 14.6667 7.99992 14.6667C11.6759 14.6667 14.6666 11.676 14.6666 8.00004C14.6666 4.32407 11.6759 1.33337 7.99992 1.33337ZM7.99992 2.33337C11.1355 2.33337 13.6666 4.8645 13.6666 8.00004C13.6666 11.1356 11.1355 13.6667 7.99992 13.6667C4.86438 13.6667 2.33325 11.1356 2.33325 8.00004C2.33325 4.8645 4.86438 2.33337 7.99992 2.33337ZM5.16659 5.33337C5.10033 5.33244 5.03455 5.34468 4.97306 5.36938C4.91158 5.39409 4.85562 5.43077 4.80843 5.47729C4.76125 5.52382 4.72378 5.57925 4.69821 5.64038C4.67263 5.70151 4.65946 5.76711 4.65946 5.83337C4.65946 5.89964 4.67263 5.96524 4.69821 6.02637C4.72378 6.0875 4.76125 6.14293 4.80843 6.18945C4.85562 6.23598 4.91158 6.27266 4.97306 6.29736C5.03455 6.32207 5.10033 6.33431 5.16659 6.33337H6.49992C6.56617 6.33431 6.63196 6.32207 6.69344 6.29736C6.75492 6.27266 6.81088 6.23598 6.85807 6.18945C6.90525 6.14293 6.94272 6.0875 6.9683 6.02637C6.99387 5.96524 7.00704 5.89964 7.00704 5.83337C7.00704 5.76711 6.99387 5.70151 6.9683 5.64038C6.94272 5.57925 6.90525 5.52382 6.85807 5.47729C6.81088 5.43077 6.75492 5.39409 6.69344 5.36938C6.63196 5.34468 6.56617 5.33244 6.49992 5.33337H5.16659ZM9.49992 5.33337C9.43366 5.33244 9.36788 5.34468 9.3064 5.36938C9.24491 5.39409 9.18895 5.43077 9.14177 5.47729C9.09458 5.52382 9.05711 5.57925 9.03154 5.64038C9.00597 5.70151 8.9928 5.76711 8.9928 5.83337C8.9928 5.89964 9.00597 5.96524 9.03154 6.02637C9.05711 6.0875 9.09458 6.14293 9.14177 6.18945C9.18895 6.23598 9.24491 6.27266 9.3064 6.29736C9.36788 6.32207 9.43366 6.33431 9.49992 6.33337H10.8333C10.8995 6.33431 10.9653 6.32207 11.0268 6.29736C11.0883 6.27266 11.1442 6.23598 11.1914 6.18945C11.2386 6.14293 11.2761 6.0875 11.3016 6.02637C11.3272 5.96524 11.3404 5.89964 11.3404 5.83337C11.3404 5.76711 11.3272 5.70151 11.3016 5.64038C11.2761 5.57925 11.2386 5.52382 11.1914 5.47729C11.1442 5.43077 11.0883 5.39409 11.0268 5.36938C10.9653 5.34468 10.8995 5.33244 10.8333 5.33337H9.49992ZM5.16659 8.00004C5.03398 8.00005 4.90681 8.05274 4.81305 8.1465C4.71928 8.24027 4.6666 8.36744 4.66659 8.50004C4.66659 10.335 6.12947 12 7.99992 12C9.87037 12 11.3333 10.335 11.3333 8.50004C11.3332 8.36744 11.2806 8.24027 11.1868 8.1465C11.093 8.05274 10.9659 8.00005 10.8333 8.00004H5.16659ZM5.76685 9.00004H10.233C9.99825 10.084 9.09082 11 7.99992 11C6.90901 11 6.00159 10.084 5.76685 9.00004Z" fill="#9CA3AF"/>
</svg>
