<svg width="40" height="40" viewBox="0 0 40 40" fill="none" xmlns="http://www.w3.org/2000/svg">
<rect width="40" height="40" rx="8" fill="#2D8CFF"/>
<path d="M10.7226 10.001C10.6033 10.0055 10.4867 10.0383 10.3826 10.0969C10.2786 10.1555 10.19 10.2381 10.1243 10.3378C10.0585 10.4376 10.0176 10.5515 10.0048 10.6703C9.99202 10.789 10.0078 10.9091 10.0508 11.0205L12.8008 18.1211C12.8481 18.2429 12.9264 18.3503 13.028 18.4325C13.1296 18.5147 13.2509 18.569 13.3799 18.5899L20.8506 19.8028C21.0367 19.8329 21.0185 19.8867 21.0185 20C21.0185 20.1134 21.0367 20.1671 20.8506 20.1973L13.3799 21.4102C13.2509 21.4311 13.1296 21.4854 13.028 21.5676C12.9264 21.6498 12.8481 21.7571 12.8008 21.8789L10.0508 28.9795C9.99633 29.1206 9.98582 29.2748 10.0206 29.422C10.0554 29.5692 10.1338 29.7024 10.2456 29.8042C10.3575 29.906 10.4975 29.9716 10.6472 29.9924C10.797 30.0133 10.9496 29.9883 11.0849 29.9209L29.5849 20.6709C29.7095 20.6086 29.8143 20.5129 29.8876 20.3944C29.9608 20.2759 29.9996 20.1393 29.9996 20C29.9996 19.8607 29.9608 19.7242 29.8876 19.6057C29.8143 19.4872 29.7095 19.3914 29.5849 19.3291L11.0849 10.0791C10.9726 10.0232 10.848 9.99633 10.7226 10.001Z" fill="white"/>
</svg>
