<svg width="4" height="14" viewBox="0 0 4 14" fill="none" xmlns="http://www.w3.org/2000/svg">
<path d="M0.526869 2.08918C0.526869 1.69846 0.682082 1.32374 0.958363 1.04746C1.23464 0.77118 1.60936 0.615967 2.00008 0.615967C2.3908 0.615967 2.76552 0.77118 3.0418 1.04746C3.31808 1.32374 3.4733 1.69846 3.4733 2.08918C3.4733 2.4799 3.31808 2.85462 3.0418 3.1309C2.76552 3.40718 2.3908 3.5624 2.00008 3.5624C1.60936 3.5624 1.23464 3.40718 0.958363 3.1309C0.682082 2.85462 0.526869 2.4799 0.526869 2.08918ZM0.526869 6.99989C0.526869 6.60917 0.682082 6.23446 0.958363 5.95818C1.23464 5.68189 1.60936 5.52668 2.00008 5.52668C2.3908 5.52668 2.76552 5.68189 3.0418 5.95818C3.31808 6.23446 3.4733 6.60917 3.4733 6.9999C3.4733 7.39062 3.31808 7.76533 3.0418 8.04161C2.76552 8.3179 2.3908 8.47311 2.00008 8.47311C1.60936 8.47311 1.23464 8.3179 0.958363 8.04161C0.682082 7.76533 0.526869 7.39062 0.526869 6.99989ZM0.526868 11.9106C0.526868 11.5199 0.682081 11.1452 0.958363 10.8689C1.23464 10.5926 1.60936 10.4374 2.00008 10.4374C2.3908 10.4374 2.76552 10.5926 3.0418 10.8689C3.31808 11.1452 3.4733 11.5199 3.4733 11.9106C3.4733 12.3013 3.31808 12.676 3.0418 12.9523C2.76552 13.2286 2.3908 13.3838 2.00008 13.3838C1.60936 13.3838 1.23464 13.2286 0.958363 12.9523C0.682081 12.676 0.526868 12.3013 0.526868 11.9106Z" fill="white"/>
</svg>
