<svg width="20" height="20" viewBox="0 0 20 20" fill="none" xmlns="http://www.w3.org/2000/svg">
<g clip-path="url(#clip0_217_72)">
<path d="M10 0.833252C7.93637 0.833252 6.25 2.51962 6.25 4.58325V10.8333C6.25 12.8969 7.93637 14.5833 10 14.5833C12.0636 14.5833 13.75 12.8969 13.75 10.8333V4.58325C13.75 2.51962 12.0636 0.833252 10 0.833252ZM4.36524 8.74097C4.19962 8.74355 4.0418 8.81177 3.92644 8.93064C3.81109 9.0495 3.74763 9.2093 3.75 9.37492V10.8333C3.75 14.0668 6.22252 16.7366 9.375 17.0515V18.9583C9.37383 19.0411 9.38913 19.1233 9.42002 19.2002C9.4509 19.277 9.49675 19.347 9.5549 19.4059C9.61306 19.4649 9.68235 19.5118 9.75876 19.5437C9.83517 19.5757 9.91717 19.5922 10 19.5922C10.0828 19.5922 10.1648 19.5757 10.2412 19.5437C10.3177 19.5118 10.3869 19.4649 10.4451 19.4059C10.5033 19.347 10.5491 19.277 10.58 19.2002C10.6109 19.1233 10.6262 19.0411 10.625 18.9583V17.0515C13.7775 16.7366 16.25 14.0668 16.25 10.8333V9.37492C16.2512 9.2921 16.2359 9.20987 16.205 9.13302C16.1741 9.05616 16.1283 8.98621 16.0701 8.92723C16.0119 8.86825 15.9427 8.82141 15.8662 8.78945C15.7898 8.75748 15.7078 8.74102 15.625 8.74102C15.5422 8.74102 15.4602 8.75748 15.3838 8.78945C15.3074 8.82141 15.2381 8.86825 15.1799 8.92723C15.1217 8.98621 15.0759 9.05616 15.045 9.13302C15.0141 9.20987 14.9988 9.2921 15 9.37492V10.8333C15 13.5772 12.8082 15.7894 10.0741 15.8292C10.0463 15.8257 10.0183 15.824 9.99024 15.8243C9.96738 15.8247 9.94456 15.8263 9.92188 15.8292C7.18964 15.7872 5 13.5758 5 10.8333V9.37492C5.0012 9.29127 4.9856 9.20822 4.95411 9.13071C4.92263 9.0532 4.8759 8.9828 4.81671 8.92368C4.75751 8.86456 4.68705 8.81793 4.6095 8.78654C4.53195 8.75516 4.44889 8.73966 4.36524 8.74097Z" fill="white"/>
<g clip-path="url(#clip1_217_72)">
<mask id="mask0_217_72" style="mask-type:alpha" maskUnits="userSpaceOnUse" x="0" y="9" width="24" height="15">
<rect y="9" width="24" height="15" fill="#C4C4C4"/>
</mask>
<g mask="url(#mask0_217_72)">
<path d="M10 0.833252C7.93637 0.833252 6.25 2.51962 6.25 4.58325V10.8333C6.25 12.8969 7.93637 14.5833 10 14.5833C12.0636 14.5833 13.75 12.8969 13.75 10.8333V4.58325C13.75 2.51962 12.0636 0.833252 10 0.833252ZM4.36524 8.74097C4.19962 8.74355 4.0418 8.81177 3.92644 8.93064C3.81109 9.0495 3.74763 9.2093 3.75 9.37492V10.8333C3.75 14.0668 6.22252 16.7366 9.375 17.0515V18.9583C9.37383 19.0411 9.38913 19.1233 9.42002 19.2002C9.4509 19.277 9.49675 19.347 9.5549 19.4059C9.61306 19.4649 9.68235 19.5118 9.75876 19.5437C9.83517 19.5757 9.91717 19.5922 10 19.5922C10.0828 19.5922 10.1648 19.5757 10.2412 19.5437C10.3177 19.5118 10.387 19.4649 10.4451 19.4059C10.5033 19.347 10.5491 19.277 10.58 19.2002C10.6109 19.1233 10.6262 19.0411 10.625 18.9583V17.0515C13.7775 16.7366 16.25 14.0668 16.25 10.8333V9.37492C16.2512 9.2921 16.2359 9.20987 16.205 9.13302C16.1741 9.05616 16.1283 8.98621 16.0701 8.92723C16.012 8.86825 15.9427 8.82141 15.8662 8.78945C15.7898 8.75748 15.7078 8.74102 15.625 8.74102C15.5422 8.74102 15.4602 8.75748 15.3838 8.78945C15.3074 8.82141 15.2381 8.86825 15.1799 8.92723C15.1217 8.98621 15.0759 9.05616 15.045 9.13302C15.0141 9.20987 14.9988 9.2921 15 9.37492V10.8333C15 13.5772 12.8082 15.7894 10.0741 15.8292C10.0463 15.8257 10.0183 15.824 9.99024 15.8243C9.96738 15.8247 9.94456 15.8263 9.92188 15.8292C7.18964 15.7872 5 13.5758 5 10.8333V9.37492C5.0012 9.29127 4.9856 9.20822 4.95411 9.13071C4.92263 9.0532 4.8759 8.9828 4.81671 8.92368C4.75751 8.86456 4.68705 8.81793 4.6095 8.78654C4.53195 8.75516 4.44889 8.73966 4.36524 8.74097Z" fill="#2D8CFF"/>
</g>
</g>
</g>
<defs>
<clipPath id="clip0_217_72">
<rect width="20" height="20" fill="white"/>
</clipPath>
<clipPath id="clip1_217_72">
<rect width="20" height="20" fill="white"/>
</clipPath>
</defs>
</svg>
