<svg width="20" height="16" viewBox="0 0 20 16" fill="none" xmlns="http://www.w3.org/2000/svg">
<path d="M9.02905 14.1701H1.71658C1.22724 14.1701 0.818988 14.0142 0.491818 13.7025C0.164647 13.3907 0.00070816 13.0014 0 12.5345V1.63569C0 1.16943 0.163939 0.780425 0.491818 0.468684C0.819696 0.156943 1.2276 0.000735799 1.71552 6.10352e-05H17.4048C17.8934 6.10352e-05 18.3013 0.156269 18.6285 0.468684C18.9557 0.7811 19.1196 1.1701 19.1203 1.63569V5.56686C19.1203 5.71126 19.0697 5.83171 18.9684 5.9282C18.8672 6.02469 18.7408 6.07294 18.5892 6.07294C18.4377 6.07294 18.3113 6.02469 18.21 5.9282C18.1087 5.83171 18.0581 5.71126 18.0581 5.56686V1.63569C18.0581 1.4535 17.9968 1.30404 17.8743 1.18731C17.7518 1.07057 17.5953 1.01221 17.4048 1.01221H1.71552C1.52502 1.01221 1.36852 1.07057 1.24601 1.18731C1.1235 1.30404 1.06224 1.4535 1.06224 1.63569V12.5355C1.06224 12.717 1.1235 12.8661 1.24601 12.9829C1.36852 13.0996 1.52538 13.158 1.71658 13.158H9.02905C9.18059 13.158 9.307 13.2062 9.40827 13.3027C9.50953 13.3992 9.56017 13.5196 9.56017 13.664C9.56017 13.8084 9.50953 13.9289 9.40827 14.0254C9.307 14.1219 9.18059 14.1701 9.02905 14.1701ZM7.43569 9.58609V4.58508C7.43569 4.33339 7.54899 4.14885 7.7756 4.03144C8.00221 3.91403 8.22104 3.92651 8.43207 4.06889L12.5079 6.57091C12.7147 6.69642 12.8181 6.86814 12.8181 7.08609C12.8181 7.30404 12.7147 7.47611 12.5079 7.60229L8.43207 10.1023C8.22104 10.2453 8.00221 10.2582 7.7756 10.1407C7.54899 10.0233 7.43569 9.83879 7.43569 9.58711M15.736 15.6347L15.6596 15.1246C15.2566 15.0402 14.9248 14.9225 14.6642 14.7713C14.4036 14.6202 14.1554 14.4319 13.9196 14.2065L13.3906 14.4191C13.2936 14.465 13.1955 14.4768 13.0964 14.4545C12.9972 14.4316 12.919 14.3759 12.8616 14.2875L12.6938 14.0152C12.623 13.9275 12.5982 13.831 12.6194 13.7258C12.6421 13.6205 12.6977 13.5321 12.7862 13.4606L13.2121 13.1165C13.0818 12.7501 13.0167 12.4009 13.0167 12.0689C13.0167 11.7369 13.0822 11.3877 13.2132 11.0213L12.7851 10.6772C12.6973 10.6057 12.6424 10.5173 12.6205 10.412C12.5985 10.3067 12.623 10.2099 12.6938 10.1215L12.8616 9.84824C12.9183 9.76052 12.9962 9.70519 13.0953 9.68225C13.1952 9.65998 13.2936 9.67213 13.3906 9.71869L13.9196 9.93124C14.1554 9.70519 14.4033 9.51659 14.6632 9.36545C14.9245 9.2143 15.2566 9.09622 15.6596 9.01119L15.736 8.50208C15.7573 8.39682 15.8044 8.30944 15.8773 8.23994C15.9503 8.17111 16.0441 8.1367 16.1588 8.1367H16.453C16.5671 8.1367 16.6605 8.17111 16.7335 8.23994C16.8064 8.30944 16.8539 8.39682 16.8758 8.50208L16.9502 9.01221C17.3538 9.09655 17.686 9.21531 17.9466 9.36848C18.2072 9.52165 18.4554 9.71295 18.6912 9.94237L19.2149 9.71869C19.3112 9.67145 19.4103 9.65931 19.5123 9.68225C19.6136 9.70519 19.6925 9.76086 19.7492 9.84925L19.917 10.1327C19.9878 10.221 20.0133 10.3179 19.9935 10.4231C19.9737 10.5284 19.9195 10.6168 19.831 10.6883L19.3986 11.0324C19.5289 11.3901 19.5941 11.7372 19.5941 12.0739C19.5941 12.4107 19.5289 12.7578 19.3986 13.1154L19.8257 13.4596C19.9142 13.5311 19.9691 13.6195 19.9903 13.7248C20.0123 13.83 19.9878 13.9265 19.917 14.0142L19.7492 14.2875C19.6925 14.3752 19.6146 14.4306 19.5155 14.4535C19.4163 14.4764 19.3179 14.4643 19.2202 14.4171L18.6912 14.2045C18.4561 14.4306 18.2082 14.6195 17.9476 14.7713C17.687 14.9231 17.3549 15.0405 16.9512 15.1235L16.8758 15.6337C16.8539 15.7389 16.8064 15.8263 16.7335 15.8958C16.6605 15.9653 16.5671 16.0001 16.453 16.0001H16.1577C16.0437 16.0001 15.9503 15.9653 15.8773 15.8958C15.8044 15.8263 15.7569 15.7389 15.735 15.6337M16.3054 14.248C16.9307 14.248 17.4682 14.0335 17.9179 13.6043C18.3683 13.1758 18.5935 12.6637 18.5935 12.0679C18.5935 11.4727 18.3683 10.9606 17.9179 10.5314C17.4682 10.1023 16.9307 9.88771 16.3054 9.88771C15.6801 9.88771 15.1426 10.1023 14.6929 10.5314C14.2432 10.9606 14.018 11.4727 14.0173 12.0679C14.0166 12.663 14.2418 13.1752 14.6929 13.6043C15.144 14.0335 15.6815 14.248 16.3054 14.248Z" fill="#D1D5DB"/>
</svg>
